{
  "accessors": [
    {
      "bufferView": 2,
      "componentType": 5126,
      "count": 528,
      "max": [
        13.193440437316895,
        13.193440437316895,
        53.43904113769531
      ],
      "min": [
        -13.193440437316895,
        -13.193439483642578,
        0.0
      ],
      "type": "VEC3"
    },
    {
      "bufferView": 2,
      "byteOffset": 6336,
      "componentType": 5126,
      "count": 528,
      "type": "VEC3"
    },
    {
      "bufferView": 1,
      "componentType": 5126,
      "count": 528,
      "type": "VEC2"
    },
    {
      "bufferView": 0,
      "componentType": 5125,
      "count": 1632,
      "type": "SCALAR"
    },
    {
      "bufferView": 2,
      "byteOffset": 12672,
      "componentType": 5126,
      "count": 1472,
      "max": [
        2.195199966430664,
        3.1077003479003906,
        32.33155059814453
      ],
      "min": [
        -2.195199966430664,
        -3.1077003479003906,
        -0.20000004768371582
      ],
      "type": "VEC3"
    },
    {
      "bufferView": 2,
      "byteOffset": 30336,
      "componentType": 5126,
      "count": 1472,
      "type": "VEC3"
    },
    {
      "bufferView": 1,
      "byteOffset": 4224,
      "componentType": 5126,
      "count": 1472,
      "type": "VEC2"
    },
    {
      "bufferView": 0,
      "byteOffset": 6528,
      "componentType": 5125,
      "count": 2208,
      "type": "SCALAR"
    },
    {
      "bufferView": 2,
      "byteOffset": 48000,
      "componentType": 5126,
      "count": 1472,
      "max": [
        20.792757034301758,
        3.1077003479003906,
        32.33155059814453
      ],
      "min": [
        16.40235710144043,
        -3.1077003479003906,
        -0.20000004768371582
      ],
      "type": "VEC3"
    },
    {
      "bufferView": 2,
      "byteOffset": 65664,
      "componentType": 5126,
      "count": 1472,
      "type": "VEC3"
    },
    {
      "bufferView": 1,
      "byteOffset": 16000,
      "componentType": 5126,
      "count": 1472,
      "type": "VEC2"
    },
    {
      "bufferView": 0,
      "byteOffset": 15360,
      "componentType": 5125,
      "count": 2208,
      "type": "SCALAR"
    },
    {
      "bufferView": 5,
      "componentType": 5126,
      "count": 163,
      "max": [
        10.0
      ],
      "min": [
        0.0
      ],
      "type": "SCALAR"
    },
    {
      "bufferView": 3,
      "componentType": 5126,
      "count": 163,
      "type": "VEC3"
    },
    {
      "bufferView": 5,
      "byteOffset": 652,
      "componentType": 5126,
      "count": 301,
      "max": [
        10.0
      ],
      "min": [
        0.0
      ],
      "type": "SCALAR"
    },
    {
      "bufferView": 4,
      "componentType": 5126,
      "count": 301,
      "type": "VEC4"
    },
    {
      "bufferView": 5,
      "byteOffset": 1856,
      "componentType": 5126,
      "count": 11,
      "max": [
        5.199999809265137
      ],
      "min": [
        4.599999904632568
      ],
      "type": "SCALAR"
    },
    {
      "bufferView": 3,
      "byteOffset": 1956,
      "componentType": 5126,
      "count": 11,
      "type": "VEC3"
    },
    {
      "bufferView": 5,
      "byteOffset": 1900,
      "componentType": 5126,
      "count": 19,
      "max": [
        5.199999809265137
      ],
      "min": [
        4.599999904632568
      ],
      "type": "SCALAR"
    },
    {
      "bufferView": 4,
      "byteOffset": 4816,
      "componentType": 5126,
      "count": 19,
      "type": "VEC4"
    },
    {
      "bufferView": 5,
      "byteOffset": 1976,
      "componentType": 5126,
      "count": 10,
      "max": [
        5.233333110809326
      ],
      "min": [
        4.599999904632568
      ],
      "type": "SCALAR"
    },
    {
      "bufferView": 3,
      "byteOffset": 2088,
      "componentType": 5126,
      "count": 10,
      "type": "VEC3"
    },
    {
      "bufferView": 5,
      "byteOffset": 2016,
      "componentType": 5126,
      "count": 20,
      "max": [
        5.233333110809326
      ],
      "min": [
        4.599999904632568
      ],
      "type": "SCALAR"
    },
    {
      "bufferView": 4,
      "byteOffset": 5120,
      "componentType": 5126,
      "count": 20,
      "type": "VEC4"
    }
  ],
  "animations": [
    {
      "channels": [
        {
          "sampler": 0,
          "target": {
            "node": 4,
            "path": "translation"
          }
        },
        {
          "sampler": 1,
          "target": {
            "node": 4,
            "path": "rotation"
          }
        },
        {
          "sampler": 2,
          "target": {
            "node": 7,
            "path": "translation"
          }
        },
        {
          "sampler": 3,
          "target": {
            "node": 7,
            "path": "rotation"
          }
        },
        {
          "sampler": 4,
          "target": {
            "node": 10,
            "path": "translation"
          }
        },
        {
          "sampler": 5,
          "target": {
            "node": 10,
            "path": "rotation"
          }
        }
      ],
      "name": "Take 001",
      "samplers": [
        {
          "input": 12,
          "interpolation": "LINEAR",
          "output": 13
        },
        {
          "input": 14,
          "interpolation": "LINEAR",
          "output": 15
        },
        {
          "input": 16,
          "interpolation": "LINEAR",
          "output": 17
        },
        {
          "input": 18,
          "interpolation": "LINEAR",
          "output": 19
        },
        {
          "input": 20,
          "interpolation": "LINEAR",
          "output": 21
        },
        {
          "input": 22,
          "interpolation": "LINEAR",
          "output": 23
        }
      ]
    }
  ],
  "asset": {
    "generator": "fab-model-conversion",
    "version": "2.0"
  },
  "bufferViews": [
    {
      "buffer": 0,
      "byteLength": 24192,
      "target": 34963
    },
    {
      "buffer": 0,
      "byteLength": 27776,
      "byteOffset": 24192,
      "byteStride": 8,
      "target": 34962
    },
    {
      "buffer": 0,
      "byteLength": 83328,
      "byteOffset": 51968,
      "byteStride": 12,
      "target": 34962
    },
    {
      "buffer": 0,
      "byteLength": 2208,
      "byteOffset": 135296
    },
    {
      "buffer": 0,
      "byteLength": 5440,
      "byteOffset": 137504
    },
    {
      "buffer": 0,
      "byteLength": 2096,
      "byteOffset": 142944
    }
  ],
  "buffers": [
    {
      "byteLength": 145040,
      "uri": "scene.bin"
    }
  ],
  "extensionsUsed": [
    "KHR_materials_specular"
  ],
  "materials": [
    {
      "doubleSided": true,
      "extensions": {
        "KHR_materials_specular": {
          "specularFactor": 0.7009299624853316
        }
      },
      "name": "Foguete_RA",
      "pbrMetallicRoughness": {
        "baseColorFactor": [
          0.03282970664197667,
          0.03282970664197667,
          0.03282970664197667,
          1.0
        ],
        "metallicFactor": 0.0,
        "roughnessFactor": 0.2509971483987864
      }
    },
    {
      "extensions": {
        "KHR_materials_specular": {
          "specularFactor": 0.7799722136086435
        }
      },
      "name": "andaime",
      "pbrMetallicRoughness": {
        "baseColorFactor": [
          0.15090114725019055,
          0.15090114725019055,
          0.15090114725019055,
          1.0
        ],
        "metallicFactor": 0.5671661528920344,
        "roughnessFactor": 0.39635280812797546
      }
    }
  ],
  "meshes": [
    {
      "name": "Foguete_RA_Foguete_RA_0",
      "primitives": [
        {
          "attributes": {
            "NORMAL": 1,
            "POSITION": 0,
            "TEXCOORD_0": 2
          },
          "indices": 3,
          "material": 0,
          "mode": 4
        }
      ]
    },
    {
      "name": "andaime_esquerdo_andaime_0",
      "primitives": [
        {
          "attributes": {
            "NORMAL": 5,
            "POSITION": 4,
            "TEXCOORD_0": 6
          },
          "indices": 7,
          "material": 1,
          "mode": 4
        }
      ]
    },
    {
      "name": "andaime_direito_andaime_0",
      "primitives": [
        {
          "attributes": {
            "NORMAL": 9,
            "POSITION": 8,
            "TEXCOORD_0": 10
          },
          "indices": 11,
          "material": 1,
          "mode": 4
        }
      ]
    }
  ],
  "nodes": [
    {
      "children": [
        1
      ],
      "matrix": [
        1.0,
        0.0,
        0.0,
        0.0,
        0.0,
        2.220446049250313e-16,
        -1.0,
        0.0,
        0.0,
        1.0,
        2.220446049250313e-16,
        0.0,
        0.0,
        0.0,
        0.0,
        1.0
      ],
      "name": "Sketchfab_model"
    },
    {
      "children": [
        2
      ],
      "matrix": [
        1.0,
        0.0,
        0.0,
        0.0,
        0.0,
        0.0,
        1.0,
        0.0,
        0.0,
        -1.0,
        0.0,
        0.0,
        0.0,
        0.0,
        0.0,
        1.0
      ],
      "name": "1e2ecb7798c4452bb286808fe2aeb663.fbx"
    },
    {
      "children": [
        3
      ],
      "name": "Object_2"
    },
    {
      "children": [
        4,
        7,
        10
      ],
      "name": "RootNode",
      "rotation": [
        0.0,
        0.0,
        0.0,
        1.0
      ],
      "scale": [
        1.0,
        1.0,
        1.0
      ],
      "translation": [
        0.0,
        0.0,
        0.0
      ]
    },
    {
      "children": [
        5
      ],
      "name": "Foguete_RA",
      "rotation": [
        2.1855694143368964e-08,
        0.0,
        0.0,
        1.0
      ],
      "scale": [
        1.0,
        1.0,
        1.0
      ],
      "translation": [
        0.0,
        0.0,
        -4.76837158203125e-07
      ]
    },
    {
      "children": [
        6
      ],
      "matrix": [
        1.0,
        0.0,
        0.0,
        0.0,
        0.0,
        6.123233995736766e-17,
        -1.0,
        0.0,
        -0.0,
        1.0,
        6.123233995736766e-17,
        0.0,
        0.0,
        0.0,
        4.76837158203125e-07,
        1.0
      ],
      "name": "Object_5"
    },
    {
      "mesh": 0,
      "name": "Foguete_RA_Foguete_RA_0"
    },
    {
      "children": [
        8
      ],
      "name": "andaime_esquerdo",
      "rotation": [
        2.1855694143368964e-08,
        0.0,
        0.0,
        1.0
      ],
      "scale": [
        1.0,
        1.0,
        1.0
      ],
      "translation": [
        -9.298778533935547,
        0.0,
        6.2725043296813965
      ]
    },
    {
      "children": [
        9
      ],
      "matrix": [
        1.0,
        0.0,
        0.0,
        0.0,
        0.0,
        6.123233995736766e-17,
        -1.0,
        0.0,
        -0.0,
        1.0,
        6.123233995736766e-17,
        0.0,
        0.0,
        0.0,
        0.0,
        1.0
      ],
      "name": "Object_8"
    },
    {
      "mesh": 1,
      "name": "andaime_esquerdo_andaime_0"
    },
    {
      "children": [
        11
      ],
      "name": "andaime_direito",
      "rotation": [
        2.1855694143368964e-08,
        0.0,
        0.0,
        1.0
      ],
      "scale": [
        1.0,
        1.0,
        1.0
      ],
      "translation": [
        9.014667510986328,
        0.0,
        6.2725043296813965
      ]
    },
    {
      "children": [
        12
      ],
      "matrix": [
        1.0,
        0.0,
        0.0,
        0.0,
        0.0,
        6.123233995736766e-17,
        -1.0,
        0.0,
        -0.0,
        1.0,
        6.123233995736766e-17,
        0.0,
        -18.313446044921875,
        0.0,
        0.0,
        1.0
      ],
      "name": "Object_11"
    },
    {
      "mesh": 2,
      "name": "andaime_direito_andaime_0"
    }
  ],
  "scene": 0,
  "scenes": [
    {
      "name": "Sketchfab_Scene",
      "nodes": [
        0
      ]
    }
  ]
}
